<svg width="22" height="24" viewBox="0 0 22 24" fill="none" xmlns="http://www.w3.org/2000/svg">
<g id="Group">
<path id="Vector" d="M0 12C0 10.033 0.292853 8.29804 0.878559 6.79525C1.46391 5.29251 2.2595 4.0384 3.26534 3.03298C4.27077 2.02755 5.44202 1.27061 6.77912 0.762145C8.11585 0.254032 9.5356 0 11.0384 0C12.5192 0 13.917 0.254032 15.2319 0.762145C16.5467 1.27061 17.7015 2.02755 18.6961 3.03298C19.6904 4.0384 20.4804 5.29251 21.0661 6.79525C21.6519 8.29804 21.9447 10.033 21.9447 12C21.9447 13.9666 21.6519 15.7014 21.0661 17.2041C20.4804 18.7069 19.6904 19.9609 18.6961 20.9664C17.7015 21.9722 16.5467 22.7292 15.2319 23.2373C13.917 23.7457 12.5192 24 11.0384 24C9.5356 24 8.11585 23.7457 6.77912 23.2373C5.44202 22.7292 4.27077 21.9722 3.26534 20.9664C2.2595 19.9609 1.46391 18.7069 0.878559 17.2041C0.292853 15.7014 0 13.9666 0 12ZM17.4046 5.39492C16.9051 4.7852 16.2962 4.29879 15.5952 3.91889C15.4963 3.86528 15.465 3.82428 15.513 3.71376C15.606 3.49899 15.5283 3.25931 15.3438 3.12069C15.1484 2.97412 14.9174 2.96532 14.7065 3.09454C14.6654 3.11974 14.62 3.13859 14.5689 3.16425C14.5584 3.12499 14.5524 3.10734 14.5492 3.08924C14.4738 2.65463 13.9151 2.48566 13.6228 2.79995C13.5976 2.82695 13.5558 2.8395 13.5111 2.86471C13.4376 2.62003 13.2968 2.46496 13.0522 2.4182C12.7947 2.3689 12.6184 2.50251 12.4621 2.69394C12.4252 2.64468 12.3988 2.61308 12.3766 2.57877C12.1847 2.28189 11.7916 2.21743 11.5442 2.46621C11.427 2.58402 11.3807 2.56387 11.2788 2.46186C11.1141 2.29699 10.8785 2.26283 10.6777 2.37555C10.5651 2.4387 10.4778 2.54397 10.3625 2.64463C10.2216 2.46166 10.0303 2.32109 9.76133 2.37465C9.48783 2.4291 9.35337 2.62058 9.29887 2.91536C9.13014 2.69254 8.94842 2.55397 8.69025 2.59807C8.43814 2.64118 8.28937 2.8062 8.21517 3.05508C8.02473 2.92062 7.84306 2.81685 7.61148 2.89336C7.3826 2.96887 7.26897 3.13584 7.21142 3.37072C6.99847 3.2106 6.78772 3.12279 6.53948 3.24166C6.29853 3.35707 6.2256 3.56425 6.21078 3.82383C5.96279 3.67821 5.72464 3.62855 5.4927 3.80228C5.25928 3.9772 5.24151 4.21573 5.30553 4.48896C5.04166 4.29724 4.77753 4.18092 4.4913 4.40005C4.21418 4.61223 4.22391 4.87991 4.39361 5.17655C4.0677 5.11764 3.84575 5.21415 3.70833 5.47018C3.56339 5.74017 3.7176 5.94724 3.9059 6.15897C3.60163 6.15397 3.38243 6.24508 3.27089 6.49396C3.15477 6.75294 3.27669 6.96217 3.4764 7.15594C3.21502 7.24341 3.03299 7.37877 2.99464 7.63535C2.95532 7.89839 3.12635 8.06241 3.33791 8.21878C3.09523 8.31414 2.93805 8.45386 2.89787 8.68039C2.85677 8.91161 3.00192 9.07358 3.16903 9.23575C2.91025 9.34922 2.73576 9.51794 2.75185 9.78677C2.768 10.0574 2.95557 10.2155 3.2468 10.3031C3.01073 10.4514 2.861 10.624 2.89935 10.8822C2.93734 11.1383 3.11962 11.275 3.3891 11.353C3.2029 11.5342 3.072 11.7182 3.15502 11.9709C3.23636 12.2182 3.4413 12.3166 3.70013 12.3686C3.53008 12.5809 3.44217 12.7897 3.5753 13.0222C3.70146 13.2428 3.91058 13.3327 4.17089 13.3129C4.03271 13.914 4.11512 14.0581 4.68188 14.2062C4.56769 14.4162 4.49344 14.6325 4.64827 14.8513C4.80096 15.0673 5.02077 15.1322 5.31286 15.0793C5.21839 15.2945 5.18579 15.4878 5.31251 15.6753C5.44126 15.8658 5.63719 15.9246 5.86786 15.9289C5.84861 15.9873 5.83165 16.0308 5.82009 16.0755C5.76045 16.3038 5.83139 16.4924 6.0179 16.6391C6.17782 16.7648 6.42744 16.7783 6.60967 16.6796C6.76506 16.5953 6.97688 16.7203 6.96838 16.8978C6.94831 17.3218 6.92111 17.7455 6.89814 18.1694C6.87634 18.5703 6.85689 18.9714 6.83509 19.3724C6.81665 19.7132 6.78951 20.0537 6.77912 20.3947C6.76949 20.7066 6.77698 21.019 6.77698 21.3469C6.81023 21.3469 6.86723 21.3469 6.92422 21.3469C9.0324 21.3469 11.1406 21.3469 13.2487 21.3469C13.2828 21.3469 13.3231 21.358 13.3496 21.3443C13.3938 21.3215 13.4542 21.2889 13.4645 21.2498C13.5776 20.8217 13.6816 20.3913 13.7895 19.9619C13.8448 19.7417 13.9029 19.5222 13.9647 19.2834C14.0223 19.3153 14.059 19.3345 14.0947 19.3555C14.2088 19.423 14.3163 19.5042 14.4374 19.5566C14.9683 19.7866 15.5362 19.8687 16.1098 19.8893C16.7665 19.9129 17.1438 19.6616 17.3871 19.0715C17.5101 18.773 17.5425 18.4555 17.5257 18.1357C17.5201 18.0291 17.5535 17.9737 17.6558 17.9204C17.9271 17.7786 18.1946 17.6275 18.4503 17.4612C18.7131 17.2904 18.7563 17.1039 18.578 16.8685C18.4512 16.701 18.2807 16.5642 18.1305 16.413C18.0981 16.3803 18.0688 16.345 18.0166 16.2869C18.2322 16.2869 18.4081 16.3031 18.5796 16.2835C18.9312 16.2433 19.1725 16.0916 19.0459 15.6842C18.9602 15.4083 18.8421 15.1419 18.7391 14.8711C18.7221 14.8264 18.7081 14.7806 18.6903 14.728C18.7389 14.7201 18.7671 14.7142 18.7956 14.7112C19.2796 14.6598 19.7208 14.5136 20.0797 14.1807C20.1892 14.079 20.2587 13.963 20.1891 13.8192C20.0875 13.6098 19.9934 13.3929 19.86 13.2028C19.4994 12.689 19.1111 12.1933 18.7509 11.6793C18.5296 11.3635 18.3894 11.0145 18.4716 10.6195C18.643 9.79707 18.6894 8.96887 18.5762 8.13682C18.4393 7.13149 18.0644 6.21683 17.4046 5.39492Z" fill="white" fill-opacity="0.6"/>
</g>
</svg>
