<svg width="25" height="24" viewBox="0 0 25 24" fill="none" xmlns="http://www.w3.org/2000/svg">
<g id="Frame" clip-path="url(#clip0_977_2464)">
<path id="Vector" d="M4.88232 22.5H2.25732C2.10814 22.5 1.96507 22.4407 1.85958 22.3352C1.75409 22.2298 1.69482 22.0867 1.69482 21.9375V4.3125C1.69482 4.16332 1.75409 4.02024 1.85958 3.91475C1.96507 3.80926 2.10814 3.75 2.25732 3.75H4.88232C5.03151 3.75 5.17458 3.80926 5.28007 3.91475C5.38556 4.02024 5.44482 4.16332 5.44482 4.3125V21.9375C5.44482 22.0867 5.38556 22.2298 5.28007 22.3352C5.17458 22.4407 5.03151 22.5 4.88232 22.5Z" fill="white" fill-opacity="0.6"/>
<path id="Vector_2" d="M12.1948 9.75V7.3125C12.1948 7.16332 12.1356 7.02024 12.0301 6.91475C11.9246 6.80926 11.7815 6.75 11.6323 6.75H6.75732C6.60814 6.75 6.46507 6.80926 6.35958 6.91475C6.25409 7.02024 6.19482 7.16332 6.19482 7.3125V9.75H12.1948Z" fill="white" fill-opacity="0.6"/>
<path id="Vector_3" d="M6.19482 19.5V21.9375C6.19482 22.0867 6.25409 22.2298 6.35958 22.3352C6.46507 22.4407 6.60814 22.5 6.75732 22.5H11.6323C11.7815 22.5 11.9246 22.4407 12.0301 22.3352C12.1356 22.2298 12.1948 22.0867 12.1948 21.9375V19.5H6.19482Z" fill="white" fill-opacity="0.6"/>
<path id="Vector_4" d="M12.1948 11.25H6.19482V18H12.1948V11.25Z" fill="white" fill-opacity="0.6"/>
<path id="Vector_5" d="M16.8823 22.5H13.5073C13.3581 22.5 13.2151 22.4407 13.1096 22.3352C13.0041 22.2298 12.9448 22.0867 12.9448 21.9375V2.0625C12.9448 1.91332 13.0041 1.77024 13.1096 1.66475C13.2151 1.55926 13.3581 1.5 13.5073 1.5H16.8823C17.0315 1.5 17.1746 1.55926 17.2801 1.66475C17.3856 1.77024 17.4448 1.91332 17.4448 2.0625V21.9375C17.4448 22.0867 17.3856 22.2298 17.2801 22.3352C17.1746 22.4407 17.0315 22.5 16.8823 22.5Z" fill="white" fill-opacity="0.6"/>
<path id="Vector_6" d="M18.2417 4.72032L19.6479 21.9623C19.6542 22.038 19.6756 22.1115 19.711 22.1786C19.7464 22.2457 19.7951 22.305 19.854 22.3528C19.9129 22.4006 19.9808 22.436 20.0538 22.4569C20.1267 22.4777 20.2031 22.4836 20.2784 22.4742L23.6609 22.0523C23.8049 22.0343 23.9364 21.9614 24.0278 21.8487C24.1193 21.736 24.1637 21.5923 24.1517 21.4477L22.7417 4.27547C22.7355 4.20089 22.7144 4.12829 22.6798 4.06194C22.6452 3.99559 22.5977 3.93681 22.54 3.88905C22.4824 3.84129 22.4158 3.80552 22.3442 3.78381C22.2726 3.76211 22.1974 3.75492 22.1229 3.76266L18.7418 4.11469C18.5959 4.13046 18.462 4.20261 18.3685 4.31575C18.2751 4.4289 18.2296 4.57408 18.2417 4.72032Z" fill="white" fill-opacity="0.6"/>
</g>
<defs>
<clipPath id="clip0_977_2464">
<rect width="24" height="24" fill="white" transform="translate(0.944824)"/>
</clipPath>
</defs>
</svg>
