<svg width="18" height="19" viewBox="0 0 18 19" fill="none" xmlns="http://www.w3.org/2000/svg">
<g id="Linear / Notes / Document">
<path id="Vector" d="M2.25 8C2.25 5.17157 2.25 3.75736 3.12868 2.87868C4.00736 2 5.42157 2 8.25 2H9.75C12.5784 2 13.9927 2 14.8713 2.87868C15.75 3.75736 15.75 5.17157 15.75 8V11C15.75 13.8284 15.75 15.2427 14.8713 16.1213C13.9927 17 12.5784 17 9.75 17H8.25C5.42157 17 4.00736 17 3.12868 16.1213C2.25 15.2427 2.25 13.8284 2.25 11V8Z" stroke="#5CACFD" stroke-width="1.5"/>
<path id="Vector_2" d="M6 8H12" stroke="#5CACFD" stroke-width="1.5" stroke-linecap="round"/>
<path id="Vector_3" d="M6 11H9.75" stroke="#5CACFD" stroke-width="1.5" stroke-linecap="round"/>
</g>
</svg>
