<svg width="25" height="24" viewBox="0 0 25 24" fill="none" xmlns="http://www.w3.org/2000/svg">
<g id="Layer_1" clip-path="url(#clip0_977_2455)">
<path id="Vector" d="M24.5206 6.31577H24.4992C24.0882 6.3184 24.0245 5.9614 24.0174 5.79565V3.20327C24.0174 2.92652 23.7931 2.70227 23.5171 2.70227H16.1052C14.2456 2.70227 13.5519 3.39152 13.3797 3.6079L13.3325 3.67352L13.3321 3.67465L13.1855 3.87565C12.9886 4.14602 12.8169 4.0309 12.7344 3.9424L12.4539 3.59252L12.3151 3.42527C12.0819 3.1804 11.474 2.70227 10.2691 2.70227H2.37274C2.09599 2.70227 1.87174 2.92652 1.87174 3.20327V5.76265C1.87174 6.21077 1.62837 6.30077 1.47912 6.31577H1.36812C1.24662 6.32327 0.963867 6.39377 0.963867 6.9139V19.1123C0.963867 19.4115 1.20649 19.6538 1.50574 19.6538H8.71249C11.0116 19.6538 12.0136 20.5208 12.314 20.8534L12.4854 21.0656C12.4854 21.0656 12.9455 21.5858 13.43 21.0656L13.5305 20.9479L13.532 20.9471L13.6602 20.7971C13.664 20.7926 13.6947 20.7581 13.7394 20.7124C14.123 20.3393 15.0819 19.6538 16.9569 19.6538H24.3837C24.6834 19.6538 24.9256 19.4115 24.9256 19.1123V6.79577C24.9256 6.35477 24.6065 6.31802 24.5206 6.31577ZM22.9014 17.1983C22.9014 17.4386 22.7007 17.6325 22.451 17.6325H16.3404C14.1657 17.6325 13.3764 18.615 13.3764 18.615L13.2762 18.7493L13.2294 18.8141C13.022 19.0958 12.7167 18.8164 12.7152 18.8149L12.5746 18.639C12.4704 18.5138 11.6716 17.6321 9.73849 17.6321H3.43849C3.18987 17.6321 2.98887 17.4379 2.98887 17.1979V4.19965C2.98887 3.95965 3.18987 3.7654 3.43849 3.7654H8.32962C11.9679 3.7654 12.3125 5.83202 12.3361 6.4324V15.4721C12.3361 16.1291 12.6492 16.2525 12.8259 16.2705H13.0887C13.2687 16.2525 13.5549 16.1456 13.5549 15.633V6.31577H13.5519C13.5789 5.5639 13.8721 3.76502 16.0602 3.76502H22.451C22.7007 3.76502 22.9014 3.95927 22.9014 4.19927V17.1983Z" fill="#E68124"/>
</g>
<defs>
<clipPath id="clip0_977_2455">
<rect width="24" height="24" fill="white" transform="translate(0.944824)"/>
</clipPath>
</defs>
</svg>
