<svg width="25" height="24" viewBox="0 0 25 24" fill="none" xmlns="http://www.w3.org/2000/svg">
<g id="Frame" clip-path="url(#clip0_977_2459)">
<path id="Vector" d="M4.94482 6H2.94482V20C2.94482 21.105 3.83982 22 4.94482 22H18.9448V20H4.94482V6ZM20.9448 2H8.94482C7.83982 2 6.94482 2.895 6.94482 4V16C6.94482 17.105 7.83982 18 8.94482 18H20.9448C22.0498 18 22.9448 17.105 22.9448 16V4C22.9448 2.895 22.0498 2 20.9448 2ZM19.9448 11H9.94482V9H19.9448V11ZM15.9448 15H9.94482V13H15.9448V15ZM19.9448 7H9.94482V5H19.9448V7Z" fill="white" fill-opacity="0.6"/>
</g>
<defs>
<clipPath id="clip0_977_2459">
<rect width="24" height="24" fill="white" transform="translate(0.944824)"/>
</clipPath>
</defs>
</svg>
