<svg width="25" height="24" viewBox="0 0 25 24" fill="none" xmlns="http://www.w3.org/2000/svg">
<g id="Layer_1">
<g id="Group">
<path id="Vector" d="M9.94482 9C9.94482 7.3 11.2448 6 12.9448 6C14.6448 6 15.9448 7.3 15.9448 9C15.9448 10.7 14.6448 12 12.9448 12C11.2448 12 9.94482 10.7 9.94482 9ZM12.9448 14C8.34482 14 6.94482 17.3 6.94482 17.3V19H18.9448V17.3C18.9448 17.3 17.5448 14 12.9448 14Z" fill="white" fill-opacity="0.6"/>
</g>
<g id="Group_2">
<g id="Group_3">
<path id="Vector_2" d="M19.4448 11C20.8255 11 21.9448 9.88071 21.9448 8.5C21.9448 7.11929 20.8255 6 19.4448 6C18.0641 6 16.9448 7.11929 16.9448 8.5C16.9448 9.88071 18.0641 11 19.4448 11Z" fill="white" fill-opacity="0.6"/>
</g>
<g id="Group_4">
<path id="Vector_3" d="M19.445 13C18.245 13 17.345 13.3 16.645 13.8C18.945 14.9 19.845 16.8 19.845 17V17.1H23.945V15.8C23.945 15.7 22.845 13 19.445 13Z" fill="white" fill-opacity="0.6"/>
</g>
</g>
<g id="Group_5">
<g id="Group_6">
<path id="Vector_4" d="M6.44482 11C7.82554 11 8.94482 9.88071 8.94482 8.5C8.94482 7.11929 7.82554 6 6.44482 6C5.06411 6 3.94482 7.11929 3.94482 8.5C3.94482 9.88071 5.06411 11 6.44482 11Z" fill="white" fill-opacity="0.6"/>
</g>
<g id="Group_7">
<path id="Vector_5" d="M6.44482 13C7.64482 13 8.54482 13.3 9.24482 13.8C6.94482 14.9 6.04482 16.8 6.04482 17V17.1H1.94482V15.8C1.94482 15.7 3.04482 13 6.44482 13Z" fill="white" fill-opacity="0.6"/>
</g>
</g>
</g>
</svg>
